<svg viewBox="0 0 24 24" fill="none" >
    <path 
        fill-rule="evenodd" 
        clip-rule="evenodd" 
        d="M3.46 3.46C2 4.93 2 7.3 2 12s0 7.07 1.46 8.54C4.93 22 7.3 22 12 22s7.07 0 8.54-1.46C22 19.07 22 16.7 22 12s0-7.07-1.46-8.54C19.07 2 16.7 2 12 2S4.93 2 3.46 3.46" 
        fill="#FF4E9E"
    />
    <path 
        d="M14 12c0-.53-.53-.88-1.59-1.6-1.07-.72-1.6-1.08-2.01-.81-.4.26-.4.98-.4 2.41s0 2.15.4 2.41.94-.1 2.01-.81S14 12.53 14 12M11.25 2q-2.04-.01-3.5.07v4.18h3.5zm-5 .22c-1.22.2-2.1.56-2.79 1.24a4.8 4.8 0 0 0-1.24 2.79h4.03zm15.53 4.03a4.8 4.8 0 0 0-1.24-2.79 4.8 4.8 0 0 0-2.79-1.24v4.03zM12.75 2q2.04-.01 3.5.07v4.18h-3.5zm9.03 15.75h-4.03v4.03c1.22-.2 2.1-.56 2.79-1.24a4.8 4.8 0 0 0 1.24-2.79m-5.53 0v4.18q-1.46.08-3.5.07v-4.25zm-5 4.25v-4.25h-3.5v4.18q1.46.08 3.5.07m-5-4.25v4.03a4.8 4.8 0 0 1-2.79-1.24 4.8 4.8 0 0 1-1.24-2.79z" 
        fill="currentColor"
    />
</svg>
